<svg xmlns="http://www.w3.org/2000/svg" viewBox="0 0 1600 900" role="img" aria-label="WatchTower secure terminal command flow">
  <defs>
    <filter id="cs" x="-4%" y="-4%" width="112%" height="116%">
      <feDropShadow dx="3" dy="3" stdDeviation="0" flood-color="#1f2937"/>
    </filter>
    <filter id="ps" x="-2%" y="-8%" width="108%" height="132%">
      <feDropShadow dx="2" dy="2" stdDeviation="0" flood-color="#1f2937"/>
    </filter>
  </defs>
  <rect width="1600" height="900" fill="#fbf6ea"/>
  <circle cx="130" cy="130" r="120" fill="#fde68a" opacity="0.28"/>
  <circle cx="1490" cy="160" r="160" fill="#dbeafe" opacity="0.35"/>
  <text x="80" y="82" font-family="'Space Mono', monospace" font-size="18" font-weight="700" fill="#b91c1c" letter-spacing="2">SECURE TERMINAL FLOW</text>
  <text x="80" y="140" font-family="'DM Sans', Arial, sans-serif" font-size="42" font-weight="800" fill="#0f172a">Operational commands stay useful without becoming a raw shell.</text>
  <text x="80" y="180" font-family="'DM Sans', Arial, sans-serif" font-size="20" font-weight="500" fill="#475569">Each stage narrows risk: request, policy, execution, audit, and returned result.</text>

  <rect x="80" y="344" width="244" height="274" rx="20" fill="#ffffff" stroke="#1f2937" stroke-width="2" filter="url(#cs)"/>
  <rect x="104" y="366" width="110" height="30" rx="15" fill="#fde68a" stroke="#1f2937" stroke-width="1.5" filter="url(#ps)"/>
  <text x="118" y="386" font-family="'Space Mono', monospace" font-size="13" font-weight="700" fill="#7f1d1d">STAGE 01</text>
  <text x="104" y="436" font-family="'DM Sans', Arial, sans-serif" font-size="24" font-weight="800" fill="#0f172a">Request command</text>
  <text x="104" y="474" font-family="'DM Sans', Arial, sans-serif" font-size="16" font-weight="500" fill="#475569">The operator picks an</text>
  <text x="104" y="498" font-family="'DM Sans', Arial, sans-serif" font-size="16" font-weight="500" fill="#475569">approved action and timeout.</text>

  <rect x="372" y="344" width="244" height="274" rx="20" fill="#ffffff" stroke="#1f2937" stroke-width="2" filter="url(#cs)"/>
  <rect x="396" y="366" width="110" height="30" rx="15" fill="#fde68a" stroke="#1f2937" stroke-width="1.5" filter="url(#ps)"/>
  <text x="410" y="386" font-family="'Space Mono', monospace" font-size="13" font-weight="700" fill="#7f1d1d">STAGE 02</text>
  <text x="396" y="436" font-family="'DM Sans', Arial, sans-serif" font-size="24" font-weight="800" fill="#0f172a">Policy check</text>
  <text x="396" y="474" font-family="'DM Sans', Arial, sans-serif" font-size="16" font-weight="500" fill="#475569">Allowlists, arg checks,</text>
  <text x="396" y="498" font-family="'DM Sans', Arial, sans-serif" font-size="16" font-weight="500" fill="#475569">limits, and sudo rules apply.</text>

  <rect x="664" y="344" width="244" height="274" rx="20" fill="#ffffff" stroke="#1f2937" stroke-width="2" filter="url(#cs)"/>
  <rect x="688" y="366" width="110" height="30" rx="15" fill="#fde68a" stroke="#1f2937" stroke-width="1.5" filter="url(#ps)"/>
  <text x="702" y="386" font-family="'Space Mono', monospace" font-size="13" font-weight="700" fill="#7f1d1d">STAGE 03</text>
  <text x="688" y="436" font-family="'DM Sans', Arial, sans-serif" font-size="24" font-weight="800" fill="#0f172a">Run safely</text>
  <text x="688" y="474" font-family="'DM Sans', Arial, sans-serif" font-size="16" font-weight="500" fill="#475569">WatchTower uses structured</text>
  <text x="688" y="498" font-family="'DM Sans', Arial, sans-serif" font-size="16" font-weight="500" fill="#475569">argv execution, not free-form shell.</text>

  <rect x="956" y="344" width="244" height="274" rx="20" fill="#ffffff" stroke="#1f2937" stroke-width="2" filter="url(#cs)"/>
  <rect x="980" y="366" width="110" height="30" rx="15" fill="#fde68a" stroke="#1f2937" stroke-width="1.5" filter="url(#ps)"/>
  <text x="994" y="386" font-family="'Space Mono', monospace" font-size="13" font-weight="700" fill="#7f1d1d">STAGE 04</text>
  <text x="980" y="436" font-family="'DM Sans', Arial, sans-serif" font-size="24" font-weight="800" fill="#0f172a">Audit record</text>
  <text x="980" y="474" font-family="'DM Sans', Arial, sans-serif" font-size="16" font-weight="500" fill="#475569">Metadata is redacted and</text>
  <text x="980" y="498" font-family="'DM Sans', Arial, sans-serif" font-size="16" font-weight="500" fill="#475569">stored with encryption.</text>

  <rect x="1248" y="344" width="272" height="274" rx="20" fill="#ffffff" stroke="#1f2937" stroke-width="2" filter="url(#cs)"/>
  <rect x="1272" y="366" width="110" height="30" rx="15" fill="#ecfdf5" stroke="#10b981" stroke-width="1.5"/>
  <text x="1286" y="386" font-family="'Space Mono', monospace" font-size="13" font-weight="700" fill="#047857">STAGE 05</text>
  <text x="1272" y="436" font-family="'DM Sans', Arial, sans-serif" font-size="24" font-weight="800" fill="#0f172a">Return result</text>
  <text x="1272" y="474" font-family="'DM Sans', Arial, sans-serif" font-size="16" font-weight="500" fill="#475569">The UI receives output,</text>
  <text x="1272" y="498" font-family="'DM Sans', Arial, sans-serif" font-size="16" font-weight="500" fill="#475569">status, and exit code.</text>

  <line x1="324" y1="482" x2="372" y2="482" stroke="#1f2937" stroke-width="4" stroke-linecap="round"/>
  <polygon points="360,471 384,482 360,493" fill="#1f2937"/>
  <line x1="616" y1="482" x2="664" y2="482" stroke="#1f2937" stroke-width="4" stroke-linecap="round"/>
  <polygon points="652,471 676,482 652,493" fill="#1f2937"/>
  <line x1="908" y1="482" x2="956" y2="482" stroke="#1f2937" stroke-width="4" stroke-linecap="round"/>
  <polygon points="944,471 968,482 944,493" fill="#1f2937"/>
  <line x1="1200" y1="482" x2="1248" y2="482" stroke="#1f2937" stroke-width="4" stroke-linecap="round"/>
  <polygon points="1236,471 1260,482 1236,493" fill="#1f2937"/>

  <rect x="80" y="690" width="1440" height="116" rx="20" fill="#fffdf7" stroke="#1f2937" stroke-width="2" filter="url(#cs)"/>
  <text x="116" y="734" font-family="'DM Sans', Arial, sans-serif" font-size="21" font-weight="800" fill="#0f172a">Security property</text>
  <text x="116" y="768" font-family="'DM Sans', Arial, sans-serif" font-size="17" font-weight="500" fill="#475569">WatchTower exposes useful host operations without handing out an unrestricted shell session.</text>
</svg>